<?xml version="1.0" encoding="iso-8859-1"?>
<!-- Generator: Adobe Illustrator 19.0.0, SVG Export Plug-In . SVG Version: 6.00 Build 0)  -->
<svg version="1.1" id="Layer_1" xmlns="http://www.w3.org/2000/svg" xmlns:xlink="http://www.w3.org/1999/xlink" x="0px" y="0px"
	 viewBox="0 0 512 512" style="enable-background:new 0 0 512 512;" xml:space="preserve">
<path style="fill:#FFFE9F;" d="M289.392,300.522h-66.783v-256c0-18.442,14.949-33.391,33.391-33.391l0,0
	c18.442,0,33.391,14.949,33.391,33.391V300.522z"/>
<path style="fill:#C8F4DE;" d="M256,500.87L256,500.87c-18.442,0-33.391-14.949-33.391-33.391v-11.13h66.783v11.13
	C289.392,485.92,274.442,500.87,256,500.87z"/>
<polygon style="fill:#4A7DBA;" points="211.478,300.522 211.478,345.043 211.478,411.826 211.478,456.348 300.522,456.348 
	300.522,300.522 "/>
<path d="M300.522,289.391V44.522C300.522,19.972,280.549,0,256,0s-44.522,19.972-44.522,44.522v244.87
	c-6.147,0-11.13,4.983-11.13,11.13v44.522c0,6.147,4.983,11.13,11.13,11.13c6.147,0,11.13-4.983,11.13-11.13v-33.391h66.783v22.261
	H256c-6.147,0-11.13,4.983-11.13,11.13c0,6.147,4.983,11.13,11.13,11.13h33.391v89.043h-66.783v-33.391
	c0-6.147-4.983-11.13-11.13-11.13c-6.147,0-11.13,4.983-11.13,11.13v44.522c0,6.147,4.983,11.13,11.13,11.13
	C211.478,492.028,231.451,512,256,512s44.522-19.972,44.522-44.522c6.147,0,11.13-4.983,11.13-11.13V300.522
	C311.652,294.374,306.669,289.391,300.522,289.391z M233.739,289.391V44.522c0-12.275,9.986-22.261,22.261-22.261
	c12.275,0,22.261,9.986,22.261,22.261v244.87H233.739z M256,489.739c-12.275,0-22.261-9.986-22.261-22.261h44.522
	C278.261,479.753,268.275,489.739,256,489.739z"/>
<path d="M202.229,384.612c0.401,0.612,0.868,1.18,1.38,1.692s1.08,0.979,1.692,1.38c0.601,0.401,1.247,0.746,1.926,1.024
	c0.668,0.278,1.369,0.501,2.081,0.634c0.712,0.145,1.447,0.223,2.17,0.223c0.723,0,1.458-0.078,2.17-0.223
	c0.712-0.134,1.414-0.356,2.093-0.634c0.668-0.278,1.313-0.623,1.914-1.024c0.612-0.401,1.18-0.868,1.692-1.38
	s0.979-1.08,1.38-1.692c0.401-0.601,0.746-1.247,1.024-1.926c0.278-0.668,0.501-1.369,0.634-2.081
	c0.145-0.712,0.223-1.447,0.223-2.17c0-0.723-0.078-1.458-0.223-2.17c-0.134-0.712-0.356-1.414-0.634-2.081
	c-0.278-0.679-0.623-1.325-1.024-1.926c-0.401-0.612-0.868-1.18-1.38-1.692c-0.512-0.512-1.08-0.979-1.692-1.38
	c-0.601-0.401-1.247-0.746-1.914-1.024c-0.679-0.278-1.38-0.49-2.093-0.634c-1.425-0.289-2.905-0.289-4.341,0
	c-0.712,0.145-1.414,0.356-2.081,0.634c-0.679,0.278-1.325,0.623-1.926,1.024c-0.612,0.401-1.18,0.868-1.692,1.38
	c-0.512,0.512-0.979,1.08-1.38,1.692c-0.401,0.601-0.746,1.247-1.024,1.926c-0.278,0.668-0.501,1.369-0.634,2.081
	c-0.145,0.712-0.223,1.447-0.223,2.17c0,0.723,0.078,1.458,0.223,2.17c0.134,0.712,0.356,1.414,0.634,2.081
	C201.483,383.366,201.828,384.011,202.229,384.612z"/>
<path d="M345.053,89.046c1.672,0,3.371-0.378,4.969-1.178l44.522-22.261c5.498-2.749,7.727-9.435,4.978-14.934
	c-2.749-5.497-9.434-7.727-14.934-4.978l-44.522,22.261c-5.498,2.749-7.727,9.435-4.978,14.934
	C337.039,86.792,340.969,89.046,345.053,89.046z"/>
<path d="M394.543,201.523l-44.522-22.261c-5.498-2.749-12.184-0.521-14.934,4.978s-0.521,12.184,4.978,14.934l44.522,22.261
	c1.598,0.799,3.296,1.178,4.969,1.178c4.083,0,8.014-2.255,9.964-6.155C402.27,210.957,400.041,204.271,394.543,201.523z"/>
<path d="M117.457,65.607l44.522,22.261c1.598,0.799,3.296,1.178,4.969,1.178c4.083,0,8.014-2.255,9.964-6.155
	c2.749-5.498,0.521-12.184-4.978-14.934l-44.522-22.261c-5.498-2.749-12.184-0.52-14.934,4.978
	C109.731,56.173,111.959,62.859,117.457,65.607z"/>
<path d="M161.979,179.262l-44.522,22.261c-5.498,2.749-7.727,9.435-4.978,14.934c1.95,3.9,5.881,6.155,9.964,6.155
	c1.672,0,3.371-0.378,4.969-1.178l44.522-22.261c5.498-2.749,7.727-9.435,4.978-14.934
	C174.164,178.741,167.479,176.512,161.979,179.262z"/>
<path d="M345.044,145.066h44.522c6.147,0,11.13-4.983,11.13-11.13c0-6.147-4.983-11.13-11.13-11.13h-44.522
	c-6.147,0-11.13,4.983-11.13,11.13C333.913,140.083,338.896,145.066,345.044,145.066z"/>
<path d="M166.957,122.805h-44.522c-6.147,0-11.13,4.983-11.13,11.13s4.983,11.13,11.13,11.13h44.522
	c6.147,0,11.13-4.983,11.13-11.13C178.087,127.789,173.104,122.805,166.957,122.805z"/>
<g>
</g>
<g>
</g>
<g>
</g>
<g>
</g>
<g>
</g>
<g>
</g>
<g>
</g>
<g>
</g>
<g>
</g>
<g>
</g>
<g>
</g>
<g>
</g>
<g>
</g>
<g>
</g>
<g>
</g>
</svg>
